<svg xmlns="http://www.w3.org/2000/svg" version="1.1" viewBox="120.93 253.03 360 95">
  <defs/>
  <g>
    <path stroke-width="0" fill="rgb(0, 0, 0)" opacity="1.0" d="M 120.93313598632812 316.2191162109375 C 120.93313598632812 310.783447265625 121.5740966796875 305.4508056640625 122.85595703125 300.2210693359375 C 124.17919921875 294.9501953125 126.019287109375 289.967529296875 128.37628173828125 285.2730712890625 C 130.77462768554688 280.57867431640625 133.62783813476562 276.27545166015625 136.9359130859375 272.36346435546875 C 140.24395751953125 268.4102783203125 143.86215209960938 264.992431640625 147.79049682617188 262.10986328125 C 151.71881103515625 259.22735595703125 155.89523315429688 257.003662109375 160.31976318359375 255.4388427734375 C 164.78567504882812 253.8328857421875 169.35491943359375 253.0299072265625 174.02755737304688 253.0299072265625 C 179.48587036132812 253.0299072265625 183.7449951171875 254.18292236328125 186.80496215820312 256.48895263671875 C 189.86492919921875 258.79498291015625 191.3948974609375 262.0069580078125 191.3948974609375 266.12481689453125 C 191.3948974609375 267.7308349609375 191.16748046875 269.37799072265625 190.71261596679688 271.0662841796875 C 190.29910278320312 272.7135009765625 189.6788330078125 274.36065673828125 188.851806640625 276.0078125 C 188.02481079101562 277.61376953125 187.05307006835938 279.1785888671875 185.93658447265625 280.70220947265625 C 184.82012939453125 282.1846923828125 183.57958984375 283.4818115234375 182.21502685546875 284.5936279296875 C 180.1888427734375 284.30535888671875 178.41073608398438 283.4200439453125 176.88076782226562 281.9376220703125 C 175.39215087890625 280.4139404296875 174.44107055664062 278.663818359375 174.02755737304688 276.687255859375 C 176.79806518554688 274.340087890625 178.98965454101562 271.889892578125 180.60235595703125 269.3367919921875 C 182.25637817382812 266.78369140625 183.0833740234375 264.45709228515625 183.0833740234375 262.35693359375 C 183.0833740234375 258.7744140625 180.89178466796875 256.98309326171875 176.50860595703125 256.98309326171875 C 174.68917846679688 256.98309326171875 172.80770874023438 257.35369873046875 170.86422729492188 258.09490966796875 C 168.92074584960938 258.836181640625 166.95657348632812 259.8656005859375 164.97174072265625 261.183349609375 C 162.98690795898438 262.5010986328125 161.0640869140625 264.08648681640625 159.20330810546875 265.93951416015625 C 157.342529296875 267.7926025390625 155.60577392578125 269.8515625 153.99310302734375 272.11639404296875 C 142.99380493164062 287.640869140625 137.494140625 303.5360107421875 137.494140625 319.80169677734375 C 137.494140625 325.52557373046875 138.40386962890625 330.13763427734375 140.22329711914062 333.6378173828125 C 142.042724609375 337.1380615234375 144.46176147460938 339.197021484375 147.4803466796875 339.814697265625 C 150.87112426757812 339.03228759765625 155.19229125976562 336.91156005859375 160.44384765625 333.4525146484375 C 165.69537353515625 329.9935302734375 171.42245483398438 325.5050048828125 177.62509155273438 319.98699951171875 C 178.41073608398438 320.810546875 178.88629150390625 321.65478515625 179.05169677734375 322.51953125 C 176.73602294921875 325.40203857421875 174.33770751953125 328.181640625 171.85665893554688 330.8582763671875 C 169.41693115234375 333.534912109375 166.97726440429688 335.98504638671875 164.53756713867188 338.208740234375 C 162.13922119140625 340.3912353515625 159.76153564453125 342.32666015625 157.404541015625 344.01495361328125 C 155.04754638671875 345.70330810546875 152.87664794921875 347.00042724609375 150.89178466796875 347.9063720703125 C 141.05029296875 347.9063720703125 133.58648681640625 345.229736328125 128.50033569335938 339.87646484375 C 123.45553588867188 334.523193359375 120.93313598632812 326.637451171875 120.93313598632812 316.2191162109375"/>
    <path stroke-width="0" fill="rgb(0, 0, 0)" opacity="1.0" d="M 182.7218475341797 339.6688232421875 C 181.54910278320312 338.7049560546875 179.85525512695312 336.3492431640625 185.77972412109375 330.10577392578125 C 186.7188720703125 328.4425048828125 186.8728790283203 328.03326416015625 188.1698455810547 325.89501953125 C 189.2005615234375 323.9150390625 189.59255981445312 323.15606689453125 188.52230834960938 326.0000915527344 C 188.37623596191406 323.6352844238281 188.6707763671875 321.0419006347656 189.0840606689453 318.1441650390625 C 189.94630432128906 315.40972900390625 189.98924255371094 315.235595703125 190.01959228515625 309.2786865234375 C 191.1624755859375 307.29412841796875 191.45211791992188 306.716796875 193.33932495117188 302.5323486328125 C 194.33587646484375 300.88751220703125 195.0804443359375 299.53021240234375 195.85684204101562 297.8104248046875 C 199.49119567871094 294.9443359375 199.6934814453125 294.7063293457031 200.4879150390625 293.7861328125 C 201.72874450683594 291.37542724609375 202.47702026367188 289.2033386230469 203.06283569335938 289.2627258300781 C 204.107177734375 289.41827392578125 204.9332275390625 287.0604248046875 205.92955017089844 287.140380859375 C 206.8099822998047 286.6602783203125 208.65187072753906 285.2073669433594 210.56394958496094 285.05828857421875 C 211.6402587890625 284.9642333984375 212.3682098388672 285.1421813964844 213.27685546875 285.52593994140625 C 214.61801147460938 285.9850158691406 214.1200714111328 286.5125732421875 214.2522430419922 286.6244812011719 C 215.8107452392578 286.61358642578125 221.31739807128906 286.19976806640625 224.41299438476562 291.37060546875 C 217.54910278320312 291.78515625 215.22103881835938 293.0823669433594 214.85508728027344 293.41888427734375 C 214.26736450195312 293.97882080078125 213.80812072753906 295.2978210449219 213.9487762451172 296.3263244628906 C 215.67115783691406 304.7148742675781 213.63998413085938 307.2543029785156 212.68930053710938 308.77056884765625 C 212.03982543945312 309.9033203125 210.9188232421875 311.6618957519531 208.50169372558594 315.2093505859375 C 210.23475646972656 314.4469299316406 211.49777221679688 313.9749450683594 212.4097900390625 313.03350830078125 C 213.87818908691406 312.067138671875 215.04782104492188 310.93951416015625 216.6094512939453 308.79913330078125 C 219.27943420410156 307.6166687011719 220.91281127929688 306.55926513671875 222.058837890625 305.25146484375 C 222.77418518066406 304.0704345703125 223.55641174316406 302.41204833984375 225.93850708007812 298.9756164550781 C 227.32989501953125 297.4820556640625 227.5180206298828 296.7808837890625 230.99790954589844 295.7031555175781 C 232.53924560546875 293.9849853515625 232.83053588867188 291.4096984863281 232.50428771972656 288.31732177734375 C 232.29454040527344 288.6610107421875 232.86167907714844 289.4247741699219 234.0362091064453 288.97357177734375 C 235.63037109375 288.03729248046875 236.6262969970703 287.9750061035156 237.4491424560547 288.3481750488281 C 237.85525512695312 290.47509765625 235.73715209960938 295.89471435546875 235.65179443359375 297.79254150390625 C 229.92739868164062 301.02301025390625 229.17173767089844 302.36297607421875 229.31869506835938 303.6279296875 C 229.50759887695312 303.85400390625 229.601318359375 304.20184326171875 230.34246826171875 304.57440185546875 C 230.9646759033203 304.86322021484375 231.33010864257812 305.0672302246094 231.7882537841797 305.32452392578125 C 231.92660522460938 305.5395812988281 231.94927978515625 305.99090576171875 231.97828674316406 306.297119140625 C 232.04421997070312 306.860595703125 231.67391967773438 306.8407287597656 231.5386505126953 307.2644958496094 C 230.89137268066406 307.4097900390625 230.61167907714844 308.1387023925781 229.69227600097656 307.966796875 C 227.92422485351562 308.01708984375 223.71710205078125 307.43243408203125 224.71014404296875 309.317626953125 C 222.41351318359375 310.7279052734375 219.94837951660156 311.71246337890625 218.44725036621094 312.5705871582031 C 216.80868530273438 314.1729736328125 214.80450439453125 316.2118835449219 212.57945251464844 317.6493835449219 C 210.68878173828125 318.5209045410156 208.8442840576172 319.21661376953125 207.5793914794922 320.19866943359375 C 206.043212890625 320.7956237792969 205.9523162841797 320.8869323730469 205.47157287597656 322.13604736328125 C 199.8947296142578 325.0174255371094 199.7058868408203 325.23114013671875 199.34762573242188 325.847900390625 C 199.2683563232422 326.2302551269531 199.10072326660156 327.7865295410156 198.375244140625 329.5242004394531 C 197.74087524414062 330.64849853515625 197.24435424804688 333.04718017578125 195.86135864257812 336.96575927734375 C 195.8867950439453 337.5245056152344 195.7882537841797 340.7955322265625 192.53207397460938 342.84222412109375 C 191.95761108398438 341.63702392578125 191.7935028076172 339.7818908691406 191.76300048828125 339.5458068847656 C 190.1112060546875 341.4295349121094 188.6475372314453 344.52459716796875 188.7477569580078 345.0650634765625 C 186.9236602783203 344.4570007324219 186.96328735351562 345.0493469238281 185.9486083984375 338.97589111328125 C 184.63710021972656 339.6847229003906 183.36358642578125 339.81915283203125 182.7218475341797 339.6688232421875"/>
    <path stroke-width="0" fill="rgb(0, 0, 0)" opacity="1.0" d="M 248.70709228515625 343.64434814453125 C 246.43280029296875 343.4178466796875 244.39111328125 342.82080078125 242.58203125 341.85302734375 C 240.77288818359375 340.8853759765625 239.1964111328125 339.5469970703125 237.85250854492188 337.838134765625 C 236.50860595703125 336.129150390625 235.50067138671875 334.1885986328125 234.8287353515625 332.01641845703125 C 234.49273681640625 330.9302978515625 234.24078369140625 329.78631591796875 234.07281494140625 328.58441162109375 C 233.90481567382812 327.3824462890625 233.82080078125 326.1226806640625 233.82080078125 324.804931640625 C 233.82080078125 323.2607421875 233.939697265625 321.6907958984375 234.17745971679688 320.0950927734375 C 234.41522216796875 318.4993896484375 234.77188110351562 316.87799072265625 235.24740600585938 315.2308349609375 C 235.72296142578125 313.5631103515625 236.29669189453125 311.9210205078125 236.9686279296875 310.3048095703125 C 237.64056396484375 308.6884765625 238.4107666015625 307.09796142578125 239.27911376953125 305.53314208984375 C 240.1474609375 303.94775390625 241.09854125976562 302.413818359375 242.13232421875 300.931396484375 C 243.16607666015625 299.448974609375 244.28256225585938 298.0179443359375 245.48175048828125 296.63848876953125 C 246.680908203125 295.2384033203125 247.92660522460938 293.9361572265625 249.21881103515625 292.73162841796875 C 250.51101684570312 291.52716064453125 251.84976196289062 290.42047119140625 253.2349853515625 289.41156005859375 C 254.32046508789062 288.618896484375 255.39041137695312 287.92529296875 256.44488525390625 287.33074951171875 C 257.49932861328125 286.7362060546875 258.53826904296875 286.24078369140625 259.5616760253906 285.844482421875 C 261.6085205078125 285.0517578125 263.5933837890625 284.6553955078125 265.51617431640625 284.6553955078125 C 266.77740478515625 285.293701171875 268.02825927734375 286.27166748046875 269.268798828125 287.58941650390625 C 270.5093078613281 288.9071044921875 271.739501953125 290.5645751953125 272.9593505859375 292.561767578125 C 273.37286376953125 292.561767578125 273.72430419921875 292.561767578125 274.0137939453125 292.561767578125 C 274.3446044921875 292.561767578125 274.71673583984375 292.561767578125 275.1302490234375 292.561767578125 C 277.2391357421875 292.561767578125 278.82080078125 293.47283935546875 279.875244140625 295.2950439453125 C 280.4024658203125 296.20611572265625 280.79791259765625 297.344970703125 281.0615234375 298.71160888671875 C 281.32513427734375 300.0782470703125 281.4569091796875 301.672607421875 281.4569091796875 303.49481201171875 C 281.4569091796875 304.7198486328125 281.4052429199219 305.92950439453125 281.3018798828125 307.1236572265625 C 281.198486328125 308.31787109375 281.04339599609375 309.49664306640625 280.836669921875 310.659912109375 C 280.42315673828125 312.986572265625 279.8028869628906 315.25140380859375 278.97589111328125 317.4544677734375 C 278.1695556640625 319.6575927734375 277.2029724121094 321.7576904296875 276.076171875 323.7548828125 C 274.9493408203125 325.7520751953125 273.66229248046875 327.64630126953125 272.21502685546875 329.4376220703125 C 270.76776123046875 331.2288818359375 269.180908203125 332.87603759765625 267.45452880859375 334.3790283203125 C 265.7281188964844 335.882080078125 263.8621520996094 337.240966796875 261.85662841796875 338.455810546875 C 259.85113525390625 339.6705322265625 257.7525634765625 340.7103271484375 255.56097412109375 341.5750732421875 C 254.4652099609375 342.0074462890625 253.34613037109375 342.3961181640625 252.20382690429688 342.740966796875 C 251.0615234375 343.0858154296875 249.89593505859375 343.386962890625 248.70709228515625 343.64434814453125M 254.78564453125 306.89208984375 C 253.42108154296875 308.6627197265625 252.13922119140625 310.59814453125 250.94003295898438 312.69830322265625 C 249.74087524414062 314.7984619140625 248.70709228515625 316.919189453125 247.8387451171875 319.0604248046875 C 246.97036743164062 321.2017822265625 246.2880859375 323.2607421875 245.7918701171875 325.2373046875 C 245.33700561523438 327.21392822265625 245.10955810546875 328.984619140625 245.10955810546875 330.5494384765625 C 245.10955810546875 332.4024658203125 245.41970825195312 334.1937255859375 246.03997802734375 335.92327880859375 C 246.70159912109375 337.611572265625 247.42523193359375 338.579345703125 248.21087646484375 338.826416015625 C 250.0096435546875 338.4351806640625 251.73086547851562 337.8741455078125 253.37457275390625 337.1431884765625 C 255.01824951171875 336.41229248046875 256.58441162109375 335.511474609375 258.07305908203125 334.4407958984375 C 259.5616760253906 333.37017822265625 260.9469299316406 332.17083740234375 262.22882080078125 330.8427734375 C 263.51068115234375 329.5147705078125 264.6891784667969 328.05810546875 265.7642822265625 326.47265625 C 266.860107421875 324.86669921875 267.8370056152344 323.15777587890625 268.6950378417969 321.345947265625 C 269.55303955078125 319.5340576171875 270.2922058105469 317.61920166015625 270.9124755859375 315.6014404296875 C 271.53271484375 313.5836181640625 271.9979248046875 311.49896240234375 272.30804443359375 309.34735107421875 C 272.6181945800781 307.19580078125 272.77325439453125 304.97723388671875 272.77325439453125 302.6917724609375 C 272.77325439453125 300.63287353515625 272.6492004394531 299.02685546875 272.4010925292969 297.8739013671875 C 272.15301513671875 296.7208251953125 271.7601623535156 295.71197509765625 271.22259521484375 294.84716796875 C 269.4652099609375 295.3619384765625 267.8059997558594 296.0311279296875 266.2449951171875 296.85467529296875 C 264.68402099609375 297.67822265625 263.2212219238281 298.65625 261.85662841796875 299.7886962890625 C 260.4920654296875 300.9005126953125 259.22052001953125 302.04833984375 258.04205322265625 303.2322998046875 C 256.863525390625 304.4161376953125 255.778076171875 305.6361083984375 254.78564453125 306.89208984375"/>
    <path stroke-width="0" fill="rgb(0, 0, 0)" opacity="1.0" d="M 287.34942626953125 335.73797607421875 C 287.34942626953125 334.17315673828125 287.51483154296875 331.9700927734375 287.84564208984375 329.12872314453125 C 288.2177734375 326.287353515625 288.69329833984375 323.21954345703125 289.272216796875 319.92523193359375 C 289.8924865722656 316.5897216796875 290.57476806640625 313.19244384765625 291.319091796875 309.7333984375 C 292.06341552734375 306.2744140625 292.828369140625 303.1654052734375 293.61407470703125 300.4063720703125 C 294.6478271484375 296.70025634765625 296.260498046875 293.83831787109375 298.45208740234375 291.820556640625 C 300.6436767578125 289.802734375 303.3728332519531 288.79388427734375 306.6395568847656 288.79388427734375 C 308.37628173828125 288.79388427734375 310.09234619140625 289.123291015625 311.7877197265625 289.7822265625 C 313.48309326171875 290.4410400390625 314.4962158203125 291.3057861328125 314.8270263671875 292.37646484375 C 312.5113525390625 294.2294921875 310.65057373046875 296.5355224609375 309.2446594238281 299.2945556640625 C 307.88006591796875 302.05352783203125 306.7842712402344 305.0184326171875 305.957275390625 308.189208984375 C 305.1302490234375 311.3599853515625 304.48931884765625 314.592529296875 304.0344543457031 317.8868408203125 C 303.6209411621094 321.18115234375 303.16607666015625 324.2696533203125 302.66986083984375 327.15216064453125 C 305.31634521484375 323.65191650390625 307.79736328125 320.501708984375 310.113037109375 317.7015380859375 C 312.47003173828125 314.9013671875 314.5582275390625 312.6571044921875 316.377685546875 310.96875 C 318.85870361328125 308.7039794921875 320.533447265625 306.8096923828125 321.40179443359375 305.28607177734375 C 322.2701416015625 303.7213134765625 323.01446533203125 302.0123291015625 323.634765625 300.1593017578125 C 324.13092041015625 298.75921630859375 324.7098388671875 297.112060546875 325.3714599609375 295.2177734375 C 326.0330810546875 293.28240966796875 327.17022705078125 291.53228759765625 328.78289794921875 289.967529296875 C 329.0723876953125 289.8851318359375 329.73394775390625 289.843994140625 330.76776123046875 289.843994140625 C 331.5947265625 289.843994140625 332.463134765625 289.90576171875 333.37286376953125 290.029296875 C 334.2825927734375 290.111572265625 335.1302490234375 290.29693603515625 335.9158935546875 290.585205078125 C 336.70159912109375 290.8734130859375 337.3631591796875 291.22344970703125 337.9007568359375 291.63525390625 C 338.47967529296875 292.0469970703125 338.81048583984375 292.5411376953125 338.8931884765625 293.11767578125 C 337.611328125 294.76483154296875 336.412109375 297.31793212890625 335.295654296875 300.7769775390625 C 334.17919921875 304.23602294921875 333.186767578125 308.02447509765625 332.318359375 312.14239501953125 C 331.45001220703125 316.26025390625 330.66436767578125 320.35760498046875 329.96142578125 324.434326171875 C 329.2584228515625 328.51104736328125 328.61749267578125 331.949462890625 328.03857421875 334.7496337890625 C 328.369384765625 334.5849609375 329.093017578125 333.9466552734375 330.20947265625 332.8348388671875 C 331.32598876953125 331.7230224609375 332.5665283203125 330.343505859375 333.93109130859375 328.69635009765625 C 335.3370361328125 327.0491943359375 336.804931640625 325.2373046875 338.3349609375 323.2607421875 C 339.90625 321.28411865234375 341.2708740234375 319.3487548828125 342.42864990234375 317.4544677734375 C 343.9586181640625 315.1484375 345.2198486328125 313.00714111328125 346.2122802734375 311.030517578125 C 347.2047119140625 309.0128173828125 348.07305908203125 306.8714599609375 348.8173828125 304.60662841796875 C 349.5616455078125 302.30059814453125 350.24395751953125 299.74749755859375 350.8642578125 296.94732666015625 C 351.52587890625 294.10595703125 352.2081298828125 290.7498779296875 352.91107177734375 286.8790283203125 C 353.40728759765625 286.2613525390625 354.46173095703125 285.74664306640625 356.074462890625 285.3348388671875 C 357.72845458984375 284.88189697265625 359.217041015625 284.6553955078125 360.540283203125 284.6553955078125 C 361.739501953125 284.6553955078125 362.6285400390625 284.861328125 363.2073974609375 285.2730712890625 C 362.7939453125 289.67919921875 362.04962158203125 293.6324462890625 360.9744873046875 297.13262939453125 C 359.89935302734375 300.5916748046875 358.45208740234375 303.9683837890625 356.6326904296875 307.2626953125 C 354.813232421875 310.51580810546875 352.5389404296875 313.78955078125 349.809814453125 317.0838623046875 C 347.1219482421875 320.3370361328125 343.9586181640625 323.8990478515625 340.31976318359375 327.76983642578125 C 338.789794921875 329.3345947265625 337.1357421875 331.06414794921875 335.357666015625 332.9583740234375 C 333.57958984375 334.8526611328125 331.82220458984375 336.60272216796875 330.08544921875 338.208740234375 C 328.39007568359375 339.814697265625 326.798095703125 341.173583984375 325.3094482421875 342.285400390625 C 323.8621826171875 343.39727783203125 322.7457275390625 343.95318603515625 321.96002197265625 343.95318603515625 C 320.140625 343.95318603515625 318.63128662109375 343.253173828125 317.43212890625 341.85302734375 C 316.23291015625 340.4530029296875 315.63336181640625 338.64111328125 315.63336181640625 336.41741943359375 C 315.63336181640625 334.152587890625 315.73675537109375 332.196533203125 315.9434814453125 330.5494384765625 C 316.1502685546875 328.861083984375 316.501708984375 327.06982421875 316.9979248046875 325.175537109375 C 317.4527587890625 323.446044921875 317.824951171875 322.0047607421875 318.1143798828125 320.85174560546875 C 318.40386962890625 319.6575927734375 318.63128662109375 318.648681640625 318.79669189453125 317.8250732421875 C 319.00341796875 316.9603271484375 319.148193359375 316.2191162109375 319.2308349609375 315.6014404296875 C 319.3135986328125 314.94256591796875 319.39630126953125 314.3043212890625 319.47900390625 313.6866455078125 C 318.85870361328125 314.01605224609375 318.03173828125 314.6749267578125 316.9979248046875 315.6632080078125 C 315.96417236328125 316.6103515625 314.8890380859375 317.74273681640625 313.7725830078125 319.0604248046875 C 312.6560974121094 320.3370361328125 311.53961181640625 321.6341552734375 310.42315673828125 322.951904296875 C 309.30670166015625 324.2696533203125 308.39697265625 325.40203857421875 307.6940002441406 326.34912109375 C 306.16400146484375 328.366943359375 304.8407897949219 330.158203125 303.72430419921875 331.7230224609375 C 302.64923095703125 333.287841796875 301.61541748046875 334.770263671875 300.6230163574219 336.17034912109375 C 299.630615234375 337.5704345703125 298.6588439941406 338.9910888671875 297.707763671875 340.432373046875 C 296.7567138671875 341.8736572265625 295.6402587890625 343.4178466796875 294.3583679199219 345.0650634765625 C 291.79461669921875 344.2825927734375 289.97515869140625 343.08843994140625 288.90008544921875 341.482421875 C 287.86627197265625 339.9176025390625 287.34942626953125 338.0028076171875 287.34942626953125 335.73797607421875"/>
    <path stroke-width="0" fill="rgb(0, 0, 0)" opacity="1.0" d="M 367.48724365234375 348.0299072265625 C 363.6829833984375 346.9180908203125 361.0364990234375 345.78564453125 359.54791259765625 344.63262939453125 C 358.1005859375 343.52081298828125 357.376953125 342.1207275390625 357.376953125 340.432373046875 C 357.376953125 339.15582275390625 357.72845458984375 337.364501953125 358.431396484375 335.05853271484375 C 359.17572021484375 332.7113037109375 360.230224609375 329.972900390625 361.5947265625 326.84326171875 C 363.00067138671875 323.6724853515625 364.6754150390625 320.17230224609375 366.618896484375 316.3426513671875 C 368.5623779296875 312.4718017578125 370.75390625 308.3333740234375 373.19366455078125 303.92718505859375 C 371.16748046875 303.92718505859375 369.32733154296875 303.92718505859375 367.67333984375 303.92718505859375 C 366.0606689453125 303.92718505859375 364.7374267578125 303.92718505859375 363.70361328125 303.92718505859375 C 364.15850830078125 302.774169921875 365.50244140625 301.785888671875 367.7353515625 300.9622802734375 C 369.96826171875 300.0975341796875 372.9041748046875 299.3563232421875 376.5430908203125 298.7386474609375 C 379.6444091796875 293.7559814453125 382.95245361328125 289.0203857421875 386.46728515625 284.5318603515625 C 390.0234375 280.002197265625 393.57958984375 275.84307861328125 397.1357421875 272.05462646484375 C 400.7332763671875 268.26611328125 404.31011962890625 264.9306640625 407.8663330078125 262.048095703125 C 411.46380615234375 259.16558837890625 414.875244140625 256.880126953125 418.1005859375 255.1917724609375 C 418.183349609375 254.656494140625 418.245361328125 254.2034912109375 418.28668212890625 253.8328857421875 C 418.3280029296875 253.4622802734375 418.3487548828125 253.194580078125 418.3487548828125 253.0299072265625 C 419.4652099609375 253.0299072265625 420.953857421875 253.31817626953125 422.8145751953125 253.8946533203125 C 424.6754150390625 254.42999267578125 426.494873046875 255.0888671875 428.27294921875 255.87127685546875 C 430.09234619140625 256.61248779296875 431.684326171875 257.3948974609375 433.0489501953125 258.21844482421875 C 434.454833984375 259.04205322265625 435.24053955078125 259.72149658203125 435.4058837890625 260.2568359375 C 432.759521484375 264.7864990234375 430.1544189453125 271.56048583984375 427.590576171875 280.57867431640625 C 425.0682373046875 289.59686279296875 422.97998046875 300.3857421875 421.32598876953125 312.94537353515625 C 420.953857421875 316.0338134765625 420.623046875 319.5751953125 420.33355712890625 323.569580078125 C 420.0440673828125 327.56396484375 419.8994140625 332.01123046875 419.8994140625 336.91156005859375 C 419.8994140625 338.64111328125 419.8994140625 340.3912353515625 419.8994140625 342.161865234375 C 419.8994140625 343.9737548828125 419.9820556640625 345.847412109375 420.1474609375 347.7828369140625 C 419.9820556640625 347.865234375 419.816650390625 347.9063720703125 419.6512451171875 347.9063720703125 C 419.48583984375 347.9063720703125 419.17578125 347.9063720703125 418.72088623046875 347.9063720703125 C 417.6043701171875 347.9063720703125 416.3018798828125 347.7210693359375 414.813232421875 347.3504638671875 C 413.365966796875 347.02099609375 411.9393310546875 346.588623046875 410.533447265625 346.0533447265625 C 409.1688232421875 345.5592041015625 407.9903564453125 344.982666015625 406.9979248046875 344.32379150390625 C 406.0054931640625 343.70611572265625 405.38525390625 343.15020751953125 405.13714599609375 342.656005859375 C 405.054443359375 341.667724609375 405.0130615234375 340.679443359375 405.0130615234375 339.691162109375 C 405.0130615234375 338.66168212890625 405.0130615234375 337.611572265625 405.0130615234375 336.54095458984375 C 405.0130615234375 331.5994873046875 405.178466796875 326.6168212890625 405.50927734375 321.593017578125 C 405.8814697265625 316.5279541015625 406.52239990234375 311.2982177734375 407.43212890625 305.90380859375 C 406.315673828125 305.2037353515625 404.8270263671875 304.85369873046875 402.9661865234375 304.85369873046875 C 401.14678955078125 304.85369873046875 399.09991455078125 304.85369873046875 396.82562255859375 304.85369873046875 C 394.5926513671875 304.85369873046875 392.1737060546875 304.85369873046875 389.568603515625 304.85369873046875 C 387.00482177734375 304.85369873046875 384.50311279296875 304.85369873046875 382.0633544921875 304.85369873046875 C 380.119873046875 308.3951416015625 378.3211669921875 311.9365234375 376.6671142578125 315.4779052734375 C 375.0130615234375 318.9781494140625 373.58648681640625 322.4989013671875 372.3873291015625 326.040283203125 C 371.022705078125 329.82879638671875 369.92694091796875 333.61724853515625 369.09991455078125 337.40576171875 C 368.27288818359375 341.1942138671875 367.7353515625 344.735595703125 367.48724365234375 348.0299072265625M 413.4486083984375 277.428466796875 C 413.77947998046875 276.3577880859375 414.151611328125 274.89599609375 414.56512451171875 273.04290771484375 C 415.02001953125 271.1898193359375 415.45416259765625 269.23388671875 415.86767578125 267.1749267578125 C 413.8828125 267.87493896484375 411.6705322265625 269.13092041015625 409.2308349609375 270.9427490234375 C 406.83251953125 272.754638671875 404.330810546875 274.9989013671875 401.7257080078125 277.675537109375 C 399.1619873046875 280.3521728515625 396.53619384765625 283.37884521484375 393.848388671875 286.7554931640625 C 391.201904296875 290.091064453125 388.65887451171875 293.65301513671875 386.2191162109375 297.44146728515625 C 392.87664794921875 296.82379150390625 400.44384765625 296.51495361328125 408.9207763671875 296.51495361328125 C 409.58233642578125 293.34417724609375 410.2852783203125 290.1939697265625 411.0296630859375 287.0643310546875 C 411.77392578125 283.8935546875 412.580322265625 280.681640625 413.4486083984375 277.428466796875"/>
    <path stroke-width="0" fill="rgb(0, 0, 0)" opacity="1.0" d="M 441.17431640625 332.0318603515625 C 441.17431640625 329.1905517578125 441.62921142578125 325.546142578125 442.5389404296875 321.09881591796875 C 443.4486083984375 316.6103515625 444.62713623046875 311.77178955078125 446.074462890625 306.583251953125 C 447.56304931640625 301.3946533203125 449.2584228515625 296.1031494140625 451.16058349609375 290.708740234375 C 453.062744140625 285.2730712890625 455.0062255859375 280.1875 456.99102783203125 275.451904296875 C 458.975830078125 270.67510986328125 460.91937255859375 266.4954833984375 462.821533203125 262.912841796875 C 464.7236328125 259.28912353515625 466.439697265625 256.67425537109375 467.96966552734375 255.0682373046875 C 468.75531005859375 255.150634765625 469.78912353515625 255.45947265625 471.07098388671875 255.99481201171875 C 472.39422607421875 256.48895263671875 473.7174072265625 257.10662841796875 475.0406494140625 257.84783935546875 C 476.4052734375 258.54791259765625 477.645751953125 259.3096923828125 478.76220703125 260.13330078125 C 479.878662109375 260.9569091796875 480.602294921875 261.71868896484375 480.93310546875 262.418701171875 C 478.61749267578125 264.4365234375 476.322509765625 267.50433349609375 474.0482177734375 271.62225341796875 C 471.8153076171875 275.698974609375 469.6444091796875 280.3521728515625 467.5355224609375 285.5819091796875 C 465.4266357421875 290.7705078125 463.46240234375 296.26788330078125 461.64300537109375 302.0740966796875 C 459.82354736328125 307.88037109375 458.2315673828125 313.5013427734375 456.866943359375 318.9368896484375 C 455.50244140625 324.37255859375 454.447998046875 329.4376220703125 453.70361328125 334.1319580078125 C 452.9593505859375 338.78521728515625 452.587158203125 342.5531005859375 452.587158203125 345.4356689453125 C 452.587158203125 346.75335693359375 452.71124267578125 347.576904296875 452.9593505859375 347.9063720703125 C 451.1812744140625 347.9063720703125 449.89935302734375 347.638671875 449.11370849609375 347.1033935546875 C 448.32806396484375 346.6092529296875 447.707763671875 346.07391357421875 447.2529296875 345.4974365234375 C 446.83941650390625 344.9208984375 446.44659423828125 344.3443603515625 446.074462890625 343.76788330078125 C 445.74365234375 343.19140625 445.2060546875 342.7384033203125 444.46173095703125 342.408935546875 C 443.9241943359375 342.161865234375 443.4486083984375 341.60595703125 443.03515625 340.7412109375 C 442.6629638671875 339.9176025390625 442.3321533203125 338.9910888671875 442.042724609375 337.961669921875 C 441.7532958984375 336.8909912109375 441.52581787109375 335.8203125 441.3604736328125 334.7496337890625 C 441.23638916015625 333.6378173828125 441.17431640625 332.73193359375 441.17431640625 332.0318603515625"/>
  </g>
</svg>